<svg width="131" height="122" viewBox="0 0 131 122" fill="none" xmlns="http://www.w3.org/2000/svg">
<mask id="mask0_1721_1693" style="mask-type:luminance" maskUnits="userSpaceOnUse" x="0" y="0" width="131" height="122">
<path d="M0 61C0 27.3097 29.3243 0 65.5 0H131V61C131 94.6903 101.676 122 65.5 122C29.3243 122 0 94.6903 0 61Z" fill="white"/>
</mask>
<g mask="url(#mask0_1721_1693)">
<g filter="url(#filter0_d_1721_1693)">
<path d="M144.101 134.2H-13.0994V-12.2003H144.101V134.2Z" fill="url(#paint0_linear_1721_1693)"/>
</g>
</g>
<g filter="url(#filter1_d_1721_1693)">
<path d="M44.9736 84.8646L48.9112 97.1633C49.0233 97.5139 49.2241 97.8285 49.4933 98.0757C49.7626 98.3229 50.091 98.4941 50.4458 98.5722C50.8006 98.6502 51.1693 98.6325 51.5152 98.5206C51.8611 98.4088 52.172 98.2068 52.417 97.9348L69.9732 78.4907" stroke="white" stroke-width="2.5" stroke-linecap="round" stroke-linejoin="round"/>
<path d="M92.6299 68.4198C92.6299 68.4198 90.4297 80.259 77.4172 80.259C64.4047 80.259 56.2037 63.9556 46.4023 63.9556C34.8241 63.9556 31.7832 73.8241 31.7832 80.259C31.7832 85.7519 34.656 87.984 38.4586 87.984C42.2613 87.984 49.3601 81.4605 52.4031 78.1133H69.2161" stroke="white" stroke-width="2.5" stroke-linecap="round" stroke-linejoin="round"/>
<path d="M46.4013 63.9554C46.4013 58.2919 41.922 53.9141 34.9083 53.9141C27.8945 53.9141 23.3301 57.434 23.3301 67.3868C23.3301 77.3396 31.8051 79.3125 31.8051 79.3125" stroke="white" stroke-width="2.5" stroke-linecap="round" stroke-linejoin="round"/>
<path d="M29.0515 55.0648C26.405 47.9785 32.9621 41.0419 43.1039 41.0419C58.4848 41.0419 59.8776 66.3982 74.6253 66.3982C86.8802 66.3982 95.0978 50.2591 89.4997 40.9576C82.0625 28.5977 69.6271 30.8699 64.386 35.9327" stroke="white" stroke-width="2.5" stroke-linecap="round" stroke-linejoin="round"/>
<path d="M43.1064 41.0419C45.8962 31.5149 59.8821 31.2156 65.418 36.837C70.9539 42.4583 70.657 50.4805 62.8898 59.2677M82.5777 63.9553C88.5308 71.2903 103.164 70.2702 104.221 55.7245C105.277 41.1789 92.7361 41.4129 90.2308 42.3867" stroke="white" stroke-width="2.5" stroke-linecap="round" stroke-linejoin="round"/>
</g>
<g filter="url(#filter2_d_1721_1693)">
<path d="M98.2453 35.4469L100.103 36.0847C102.539 36.9203 103.757 37.3381 104.646 38.1626C105.535 38.9871 105.985 40.1169 106.886 42.3765L107.573 44.0996L108.261 42.3765C109.162 40.1169 109.614 38.9871 110.501 38.1626C111.389 37.3381 112.608 36.9203 115.044 36.0847L116.901 35.4469L115.044 34.8091C112.608 33.9735 111.39 33.5544 110.501 32.7312C109.612 31.908 109.162 30.7769 108.261 28.5173L107.573 26.7942L106.886 28.5173C105.985 30.7769 105.535 31.9067 104.646 32.7312C103.757 33.5557 102.539 33.9735 100.103 34.8091L98.2453 35.4469ZM92.915 25.5581L93.7106 25.8313C94.7553 26.1897 95.2777 26.369 95.6575 26.7213C96.0386 27.0748 96.2318 27.5593 96.6169 28.5285L96.9128 29.2664L97.2073 28.5272C97.5937 27.5593 97.7869 27.0748 98.1667 26.7225C98.5478 26.369 99.0702 26.1897 100.115 25.8325L100.91 25.5581L100.115 25.2849C99.0702 24.9265 98.5478 24.7472 98.168 24.3949C97.7869 24.0414 97.5937 23.5569 97.2086 22.5878L96.9128 21.8498L96.6183 22.589C96.2318 23.5569 96.0386 24.0414 95.6588 24.3937C95.2777 24.7472 94.7553 24.9265 93.7106 25.2837L92.915 25.5581Z" stroke="white" stroke-width="1.5" stroke-linecap="round" stroke-linejoin="round"/>
</g>
<defs>
<filter id="filter0_d_1721_1693" x="-17.0996" y="-12.2002" width="165.2" height="154.4" filterUnits="userSpaceOnUse" color-interpolation-filters="sRGB">
<feFlood flood-opacity="0" result="BackgroundImageFix"/>
<feColorMatrix in="SourceAlpha" type="matrix" values="0 0 0 0 0 0 0 0 0 0 0 0 0 0 0 0 0 0 127 0" result="hardAlpha"/>
<feOffset dy="4"/>
<feGaussianBlur stdDeviation="2"/>
<feComposite in2="hardAlpha" operator="out"/>
<feColorMatrix type="matrix" values="0 0 0 0 0 0 0 0 0 0 0 0 0 0 0 0 0 0 0.25 0"/>
<feBlend mode="normal" in2="BackgroundImageFix" result="effect1_dropShadow_1721_1693"/>
<feBlend mode="normal" in="SourceGraphic" in2="effect1_dropShadow_1721_1693" result="shape"/>
</filter>
<filter id="filter1_d_1721_1693" x="18.0801" y="30.6201" width="91.4541" height="77.25" filterUnits="userSpaceOnUse" color-interpolation-filters="sRGB">
<feFlood flood-opacity="0" result="BackgroundImageFix"/>
<feColorMatrix in="SourceAlpha" type="matrix" values="0 0 0 0 0 0 0 0 0 0 0 0 0 0 0 0 0 0 127 0" result="hardAlpha"/>
<feOffset dy="4"/>
<feGaussianBlur stdDeviation="2"/>
<feComposite in2="hardAlpha" operator="out"/>
<feColorMatrix type="matrix" values="0 0 0 0 0 0 0 0 0 0 0 0 0 0 0 0 0 0 0.25 0"/>
<feBlend mode="normal" in2="BackgroundImageFix" result="effect1_dropShadow_1721_1693"/>
<feBlend mode="normal" in="SourceGraphic" in2="effect1_dropShadow_1721_1693" result="shape"/>
</filter>
<filter id="filter2_d_1721_1693" x="88.165" y="21.0996" width="33.4863" height="31.75" filterUnits="userSpaceOnUse" color-interpolation-filters="sRGB">
<feFlood flood-opacity="0" result="BackgroundImageFix"/>
<feColorMatrix in="SourceAlpha" type="matrix" values="0 0 0 0 0 0 0 0 0 0 0 0 0 0 0 0 0 0 127 0" result="hardAlpha"/>
<feOffset dy="4"/>
<feGaussianBlur stdDeviation="2"/>
<feComposite in2="hardAlpha" operator="out"/>
<feColorMatrix type="matrix" values="0 0 0 0 0 0 0 0 0 0 0 0 0 0 0 0 0 0 0.25 0"/>
<feBlend mode="normal" in2="BackgroundImageFix" result="effect1_dropShadow_1721_1693"/>
<feBlend mode="normal" in="SourceGraphic" in2="effect1_dropShadow_1721_1693" result="shape"/>
</filter>
<linearGradient id="paint0_linear_1721_1693" x1="55.1408" y1="134.2" x2="77.1693" y2="-12.0031" gradientUnits="userSpaceOnUse">
<stop offset="0.225052" stop-color="#4990B9"/>
<stop offset="0.580832" stop-color="#145DA0"/>
</linearGradient>
</defs>
</svg>
