<svg width="19" height="19" viewBox="0 0 19 19" fill="none" xmlns="http://www.w3.org/2000/svg">
<path d="M17.4943 0.625C17.4943 0.45924 17.4284 0.300269 17.3112 0.183058C17.194 0.065848 17.035 0 16.8693 0C16.7035 0 16.5445 0.065848 16.4273 0.183058C16.3101 0.300269 16.2443 0.45924 16.2443 0.625V1.5H15.3693C15.2035 1.5 15.0445 1.56585 14.9273 1.68306C14.8101 1.80027 14.7443 1.95924 14.7443 2.125C14.7443 2.29076 14.8101 2.44973 14.9273 2.56694C15.0445 2.68415 15.2035 2.75 15.3693 2.75H16.2443V3.625C16.2443 3.79076 16.3101 3.94973 16.4273 4.06694C16.5445 4.18415 16.7035 4.25 16.8693 4.25C17.035 4.25 17.194 4.18415 17.3112 4.06694C17.4284 3.94973 17.4943 3.79076 17.4943 3.625V2.75H18.3693C18.535 2.75 18.694 2.68415 18.8112 2.56694C18.9284 2.44973 18.9943 2.29076 18.9943 2.125C18.9943 1.95924 18.9284 1.80027 18.8112 1.68306C18.694 1.56585 18.535 1.5 18.3693 1.5H17.4943V0.625ZM5.49427 2.625C5.49427 2.45924 5.42842 2.30027 5.31121 2.18306C5.194 2.06585 5.03503 2 4.86927 2C4.70351 2 4.54454 2.06585 4.42733 2.18306C4.31012 2.30027 4.24427 2.45924 4.24427 2.625V3.5H3.36927C3.20351 3.5 3.04454 3.56585 2.92733 3.68306C2.81012 3.80027 2.74427 3.95924 2.74427 4.125C2.74427 4.29076 2.81012 4.44973 2.92733 4.56694C3.04454 4.68415 3.20351 4.75 3.36927 4.75H4.24427V5.625C4.24427 5.79076 4.31012 5.94973 4.42733 6.06694C4.54454 6.18415 4.70351 6.25 4.86927 6.25C5.03503 6.25 5.194 6.18415 5.31121 6.06694C5.42842 5.94973 5.49427 5.79076 5.49427 5.625V4.75H6.36927C6.53503 4.75 6.694 4.68415 6.81121 4.56694C6.92842 4.44973 6.99427 4.29076 6.99427 4.125C6.99427 3.95924 6.92842 3.80027 6.81121 3.68306C6.694 3.56585 6.53503 3.5 6.36927 3.5H5.49427V2.625ZM14.8693 12C15.2143 12 15.4943 12.28 15.4943 12.625V13.5H16.3693C16.535 13.5 16.694 13.5658 16.8112 13.6831C16.9284 13.8003 16.9943 13.9592 16.9943 14.125C16.9943 14.2908 16.9284 14.4497 16.8112 14.5669C16.694 14.6842 16.535 14.75 16.3693 14.75H15.4943V15.625C15.4943 15.7908 15.4284 15.9497 15.3112 16.0669C15.194 16.1842 15.035 16.25 14.8693 16.25C14.7035 16.25 14.5445 16.1842 14.4273 16.0669C14.3101 15.9497 14.2443 15.7908 14.2443 15.625V14.75H13.3693C13.2035 14.75 13.0445 14.6842 12.9273 14.5669C12.8101 14.4497 12.7443 14.2908 12.7443 14.125C12.7443 13.9592 12.8101 13.8003 12.9273 13.6831C13.0445 13.5658 13.2035 13.5 13.3693 13.5H14.2443V12.625C14.2443 12.28 14.5243 12 14.8693 12ZM14.2978 4.702C13.8524 4.25668 13.2483 4.00651 12.6185 4.00651C11.9887 4.00651 11.3847 4.25668 10.9393 4.702L10.2593 5.3815L13.6183 8.74L14.2978 8.061C14.5183 7.84046 14.6933 7.57862 14.8127 7.29045C14.9321 7.00228 14.9935 6.69342 14.9935 6.3815C14.9935 6.06958 14.9321 5.76072 14.8127 5.47255C14.6933 5.18438 14.5183 4.92254 14.2978 4.702ZM12.7348 9.624L9.37577 6.2655L0.692272 14.949C0.248365 15.3947 -0.000603377 15.9983 1.09815e-06 16.6273C0.000605573 17.2563 0.250733 17.8594 0.695496 18.3043C1.14026 18.7491 1.74333 18.9993 2.37236 19C3.0014 19.0007 3.60502 18.7518 4.05077 18.308L12.7348 9.624Z" fill="white"/>
</svg>
