<svg width="1920" height="1080" viewBox="0 0 1920 1080" fill="none" xmlns="http://www.w3.org/2000/svg">
<rect width="1920" height="1080" fill="#F7F7FF"/>
<path d="M498.995 317.003C461.492 317.003 431 293.666 431 265.001C431 236.337 461.515 213 498.995 213C536.498 213 566.99 236.337 566.99 265.001C566.99 293.666 536.475 317.003 498.995 317.003ZM498.995 214.976C462.945 214.976 433.606 237.413 433.606 264.984C433.606 292.554 462.945 314.992 498.995 314.992C535.045 314.992 564.383 292.554 564.383 264.984C564.383 237.413 535.045 214.976 498.995 214.976Z" fill="url(#paint0_linear_42_361)"/>
<path d="M1685.21 394.392C1618.36 394.392 1564 352.815 1564 301.696C1564 250.576 1618.39 209 1685.21 209C1752.02 209 1806.41 250.594 1806.41 301.696C1806.41 352.798 1752.05 394.392 1685.21 394.392ZM1685.21 212.546C1620.92 212.546 1568.64 252.534 1568.64 301.696C1568.64 350.857 1620.92 390.846 1685.21 390.846C1749.49 390.846 1801.77 350.857 1801.77 301.696C1801.77 252.534 1749.49 212.546 1685.21 212.546Z" fill="url(#paint1_linear_42_361)"/>
<path d="M1174.99 999.003C1137.49 999.003 1107 975.666 1107 947.001C1107 918.319 1137.51 895 1174.99 895C1212.47 895 1242.99 918.337 1242.99 947.001C1242.99 975.666 1212.5 999.003 1174.99 999.003ZM1174.99 896.993C1138.94 896.993 1109.61 919.431 1109.61 947.001C1109.61 974.572 1138.94 997.01 1174.99 997.01C1211.04 997.01 1240.38 974.572 1240.38 947.001C1240.38 919.431 1211.04 896.993 1174.99 896.993Z" fill="url(#paint2_linear_42_361)"/>
<path d="M1772.99 1051C1735.49 1051 1705 1027.68 1705 999.001C1705 970.319 1735.51 947 1772.99 947C1810.5 947 1840.99 970.337 1840.99 999.001C1840.99 1027.68 1810.48 1051 1772.99 1051ZM1772.99 948.993C1736.94 948.993 1707.61 971.431 1707.61 999.001C1707.61 1026.57 1736.94 1049.01 1772.99 1049.01C1809.05 1049.01 1838.38 1026.57 1838.38 999.001C1838.38 971.431 1809.05 948.993 1772.99 948.993Z" fill="url(#paint3_linear_42_361)"/>
<path d="M1348.99 213.003C1311.49 213.003 1281 189.666 1281 161.001C1281 132.337 1311.51 109 1348.99 109C1386.47 109 1416.99 132.337 1416.99 161.001C1416.99 189.666 1386.5 213.003 1348.99 213.003ZM1348.99 110.993C1312.94 110.993 1283.61 133.431 1283.61 161.001C1283.61 188.572 1312.94 211.01 1348.99 211.01C1385.04 211.01 1414.38 188.572 1414.38 161.001C1414.38 133.413 1385.07 110.993 1348.99 110.993Z" fill="url(#paint4_linear_42_361)"/>
<path d="M1394.8 439.581C1368.99 439.581 1348 423.529 1348 403.791C1348 384.052 1368.99 368 1394.8 368C1420.61 368 1441.6 384.052 1441.6 403.791C1441.6 423.529 1420.61 439.581 1394.8 439.581ZM1394.8 369.376C1369.98 369.376 1349.8 384.811 1349.8 403.791C1349.8 422.771 1369.98 438.205 1394.8 438.205C1419.62 438.205 1439.8 422.771 1439.8 403.791C1439.8 384.811 1419.62 369.376 1394.8 369.376Z" fill="url(#paint5_linear_42_361)"/>
<path d="M948.798 129.581C922.989 129.581 902 113.529 902 93.7907C902 74.052 922.989 58 948.798 58C974.608 58 995.597 74.052 995.597 93.7907C995.597 113.529 974.608 129.581 948.798 129.581ZM948.798 59.3935C923.981 59.3935 903.799 74.8281 903.799 93.8083C903.799 112.788 923.981 128.223 948.798 128.223C973.616 128.223 993.798 112.788 993.798 93.8083C993.798 74.8281 973.616 59.3935 948.798 59.3935Z" fill="url(#paint6_linear_42_361)"/>
<path d="M139.798 538.581C113.989 538.581 93 522.529 93 502.791C93 483.052 113.989 467 139.798 467C165.608 467 186.597 483.052 186.597 502.791C186.597 522.529 165.608 538.581 139.798 538.581ZM139.798 468.376C114.981 468.376 94.799 483.811 94.799 502.791C94.799 521.771 114.981 537.205 139.798 537.205C164.616 537.205 184.798 521.771 184.798 502.791C184.798 483.828 164.616 468.376 139.798 468.376Z" fill="url(#paint7_linear_42_361)"/>
<path d="M186.798 208.581C160.989 208.581 140 192.529 140 172.791C140 153.052 160.989 137 186.798 137C212.608 137 233.597 153.052 233.597 172.791C233.597 192.529 212.608 208.581 186.798 208.581ZM186.798 138.394C161.981 138.394 141.799 153.828 141.799 172.808C141.799 191.788 161.981 207.223 186.798 207.223C211.616 207.223 231.798 191.788 231.798 172.808C231.798 153.828 211.616 138.394 186.798 138.394Z" fill="url(#paint8_linear_42_361)"/>
<path d="M1772.78 810.274C1705.64 810.274 1651 768.503 1651 717.137C1651 665.788 1705.62 624 1772.78 624C1839.92 624 1894.56 665.77 1894.56 717.137C1894.56 768.503 1839.92 810.274 1772.78 810.274ZM1772.78 627.598C1708.22 627.598 1655.68 667.781 1655.68 717.154C1655.68 766.528 1708.22 806.71 1772.78 806.71C1837.34 806.71 1889.88 766.528 1889.88 717.154C1889.88 667.764 1837.36 627.598 1772.78 627.598Z" fill="url(#paint9_linear_42_361)"/>
<path d="M868.202 853.72C842.392 853.72 821.403 837.668 821.403 817.929C821.403 798.191 842.392 782.139 868.202 782.139C894.011 782.139 915 798.191 915 817.929C915 837.668 894.011 853.72 868.202 853.72ZM868.202 783.515C843.384 783.515 823.202 798.949 823.202 817.929C823.202 836.909 843.384 852.344 868.202 852.344C893.019 852.344 913.201 836.909 913.201 817.929C913.201 798.967 893.019 783.515 868.202 783.515Z" fill="url(#paint10_linear_42_361)"/>
<defs>
<linearGradient id="paint0_linear_42_361" x1="430.989" y1="264.993" x2="566.985" y2="264.993" gradientUnits="userSpaceOnUse">
<stop stop-color="#A0F1FF" stop-opacity="0"/>
<stop offset="0.9887" stop-color="#A0F1FF"/>
</linearGradient>
<linearGradient id="paint1_linear_42_361" x1="1564" y1="301.686" x2="1806.42" y2="301.686" gradientUnits="userSpaceOnUse">
<stop stop-color="#A0F1FF" stop-opacity="0"/>
<stop offset="0.9887" stop-color="#A0F1FF"/>
</linearGradient>
<linearGradient id="paint2_linear_42_361" x1="1107" y1="946.998" x2="1243" y2="946.998" gradientUnits="userSpaceOnUse">
<stop stop-color="#A0F1FF" stop-opacity="0"/>
<stop offset="0.9887" stop-color="#A0F1FF"/>
</linearGradient>
<linearGradient id="paint3_linear_42_361" x1="1704.99" y1="999.003" x2="1840.99" y2="999.003" gradientUnits="userSpaceOnUse">
<stop stop-color="#A0F1FF" stop-opacity="0"/>
<stop offset="0.9887" stop-color="#A0F1FF"/>
</linearGradient>
<linearGradient id="paint4_linear_42_361" x1="1281.01" y1="160.995" x2="1417" y2="160.995" gradientUnits="userSpaceOnUse">
<stop stop-color="#A0F1FF" stop-opacity="0"/>
<stop offset="0.9887" stop-color="#A0F1FF"/>
</linearGradient>
<linearGradient id="paint5_linear_42_361" x1="1348.02" y1="403.79" x2="1441.6" y2="403.79" gradientUnits="userSpaceOnUse">
<stop stop-color="#A0F1FF" stop-opacity="0"/>
<stop offset="0.9887" stop-color="#A0F1FF"/>
</linearGradient>
<linearGradient id="paint6_linear_42_361" x1="902.012" y1="93.7973" x2="995.592" y2="93.7973" gradientUnits="userSpaceOnUse">
<stop stop-color="#A0F1FF" stop-opacity="0"/>
<stop offset="0.9887" stop-color="#A0F1FF"/>
</linearGradient>
<linearGradient id="paint7_linear_42_361" x1="93.0173" y1="502.794" x2="186.597" y2="502.794" gradientUnits="userSpaceOnUse">
<stop stop-color="#A0F1FF" stop-opacity="0"/>
<stop offset="0.9887" stop-color="#A0F1FF"/>
</linearGradient>
<linearGradient id="paint8_linear_42_361" x1="140.016" y1="172.803" x2="233.596" y2="172.803" gradientUnits="userSpaceOnUse">
<stop stop-color="#A0F1FF" stop-opacity="0"/>
<stop offset="0.9887" stop-color="#A0F1FF"/>
</linearGradient>
<linearGradient id="paint9_linear_42_361" x1="1651.01" y1="717.153" x2="1894.56" y2="717.153" gradientUnits="userSpaceOnUse">
<stop stop-color="#A0F1FF" stop-opacity="0"/>
<stop offset="0.9887" stop-color="#A0F1FF"/>
</linearGradient>
<linearGradient id="paint10_linear_42_361" x1="821.421" y1="817.932" x2="915.001" y2="817.932" gradientUnits="userSpaceOnUse">
<stop stop-color="#A0F1FF" stop-opacity="0"/>
<stop offset="0.9887" stop-color="#A0F1FF"/>
</linearGradient>
</defs>
</svg>
